<svg width="25" height="24" viewBox="0 0 25 24" fill="none" xmlns="http://www.w3.org/2000/svg">
<g id="u:dashboard">
<path id="Vector" d="M19.588 4.95453C19.5806 4.94672 19.5784 4.93634 19.5708 4.92871C19.5632 4.92108 19.5526 4.91876 19.5447 4.91138C17.6743 3.04693 15.141 2 12.5 2C9.85902 2 7.32573 3.04693 5.45526 4.91138C5.44739 4.91876 5.43689 4.92102 5.4292 4.92871C5.42151 4.9364 5.41937 4.94671 5.41205 4.95453C4.01831 6.35495 3.07065 8.13686 2.68867 10.0754C2.30669 12.0139 2.50751 14.0221 3.26579 15.8465C4.02407 17.671 5.30582 19.23 6.94927 20.3267C8.59273 21.4234 10.5242 22.0087 12.5 22.0087C14.4758 22.0087 16.4073 21.4234 18.0507 20.3267C19.6942 19.23 20.9759 17.671 21.7342 15.8465C22.4925 14.0221 22.6933 12.0139 22.3113 10.0754C21.9294 8.13686 20.9817 6.35495 19.588 4.95453ZM12.5 20C11.3022 19.9996 10.1199 19.7298 9.04062 19.2104C7.96132 18.6911 7.01268 17.9357 6.26495 17H10.2802C10.5583 17.3144 10.9 17.5661 11.2827 17.7385C11.6653 17.9109 12.0802 18 12.5 18C12.9197 18 13.3346 17.9109 13.7172 17.7385C14.0999 17.5661 14.4416 17.3144 14.7197 17H18.735C17.9873 17.9357 17.0386 18.6911 15.9593 19.2105C14.88 19.7298 13.6977 19.9996 12.5 20ZM11.5 15C11.5 14.8022 11.5586 14.6089 11.6685 14.4444C11.7784 14.28 11.9345 14.1518 12.1173 14.0761C12.3 14.0004 12.5011 13.9806 12.695 14.0192C12.889 14.0578 13.0672 14.153 13.2071 14.2929C13.3469 14.4327 13.4422 14.6109 13.4807 14.8049C13.5193 14.9989 13.4995 15.2 13.4238 15.3827C13.3481 15.5654 13.22 15.7216 13.0555 15.8315C12.8911 15.9413 12.6977 16 12.5 16C12.2348 15.9997 11.9806 15.8943 11.7931 15.7068C11.6057 15.5193 11.5002 15.2651 11.5 15ZM19.9102 15.0021L19.8999 15H15.5C15.4981 14.3816 15.3048 13.779 14.9467 13.2748C14.5886 12.7707 14.0832 12.3897 13.5 12.1843V9C13.5 8.73478 13.3946 8.48043 13.2071 8.29289C13.0195 8.10536 12.7652 8 12.5 8C12.2347 8 11.9804 8.10536 11.7928 8.29289C11.6053 8.48043 11.5 8.73478 11.5 9V12.1843C10.9167 12.3897 10.4113 12.7707 10.0532 13.2748C9.69512 13.779 9.50186 14.3816 9.49995 15H5.10005L5.08973 15.0021C4.82963 14.3603 4.6547 13.6872 4.56941 13H5.49995C5.76517 13 6.01952 12.8946 6.20706 12.7071C6.3946 12.5196 6.49995 12.2652 6.49995 12C6.49995 11.7348 6.3946 11.4804 6.20706 11.2929C6.01952 11.1054 5.76517 11 5.49995 11H4.56941C4.7481 9.57857 5.30751 8.23182 6.18849 7.10211L6.84321 7.75684C6.93606 7.84969 7.04629 7.92334 7.1676 7.97359C7.28892 8.02384 7.41894 8.0497 7.55025 8.0497C7.68156 8.0497 7.81158 8.02384 7.93289 7.97359C8.0542 7.92334 8.16443 7.84968 8.25728 7.75683C8.35013 7.66398 8.42378 7.55376 8.47403 7.43244C8.52428 7.31113 8.55014 7.18111 8.55014 7.0498C8.55014 6.91849 8.52428 6.78847 8.47403 6.66716C8.42378 6.54585 8.35012 6.43562 8.25727 6.34277L7.60261 5.68811C8.73224 4.80741 10.0788 4.24817 11.5 4.06946V5C11.5 5.26522 11.6053 5.51957 11.7928 5.70711C11.9804 5.89464 12.2347 6 12.5 6C12.7652 6 13.0195 5.89464 13.2071 5.70711C13.3946 5.51957 13.5 5.26522 13.5 5V4.06946C14.9211 4.24817 16.2677 4.80741 17.3973 5.68811L16.7426 6.34277C16.5551 6.53029 16.4498 6.78461 16.4498 7.0498C16.4498 7.31499 16.5551 7.56932 16.7426 7.75683C16.9301 7.94435 17.1845 8.0497 17.4497 8.0497C17.7148 8.0497 17.9692 7.94436 18.1567 7.75684L18.8114 7.10211C19.6924 8.23182 20.2518 9.57857 20.4305 11H19.5C19.2347 11 18.9804 11.1054 18.7928 11.2929C18.6053 11.4804 18.5 11.7348 18.5 12C18.5 12.2652 18.6053 12.5196 18.7928 12.7071C18.9804 12.8946 19.2347 13 19.5 13H20.4305C20.3452 13.6872 20.1703 14.3603 19.9102 15.0021Z" fill="#FF6645"/>
</g>
</svg>
